<svg width="37" height="36" viewBox="0 0 37 36" fill="none" xmlns="http://www.w3.org/2000/svg">
<circle cx="18.5" cy="18" r="18" fill="#005EFF"/>
<path fill-rule="evenodd" clip-rule="evenodd" d="M25.4317 17.0003H19.5983V11.167C19.5983 10.9018 19.493 10.6474 19.3055 10.4599C19.1179 10.2723 18.8636 10.167 18.5983 10.167C18.3331 10.167 18.0788 10.2723 17.8912 10.4599C17.7037 10.6474 17.5983 10.9018 17.5983 11.167V17.0003H11.765C11.4998 17.0003 11.2454 17.1057 11.0579 17.2932C10.8704 17.4808 10.765 17.7351 10.765 18.0003C10.765 18.2655 10.8704 18.5199 11.0579 18.7074C11.2454 18.895 11.4998 19.0003 11.765 19.0003H17.5983V24.8337C17.5983 25.0989 17.7037 25.3532 17.8912 25.5408C18.0788 25.7283 18.3331 25.8337 18.5983 25.8337C18.8636 25.8337 19.1179 25.7283 19.3055 25.5408C19.493 25.3532 19.5983 25.0989 19.5983 24.8337V19.0003H25.4317C25.6969 19.0003 25.9513 18.895 26.1388 18.7074C26.3263 18.5199 26.4317 18.2655 26.4317 18.0003C26.4317 17.7351 26.3263 17.4808 26.1388 17.2932C25.9513 17.1057 25.6969 17.0003 25.4317 17.0003Z" fill="white"/>
</svg>
