<svg width="18" height="10" viewBox="0 0 18 10" fill="none" xmlns="http://www.w3.org/2000/svg">
<path fill-rule="evenodd" clip-rule="evenodd" d="M0.900063 1.6248C0.900063 1.2798 1.03506 0.9348 1.29006 0.6648C1.54306 0.412904 1.88554 0.271484 2.24256 0.271484C2.59958 0.271484 2.94206 0.412905 3.19506 0.6648L9.00006 6.4698L14.7901 0.664801C15.0431 0.412905 15.3855 0.271484 15.7426 0.271484C16.0996 0.271484 16.4421 0.412905 16.6951 0.664801C16.947 0.917803 17.0884 1.26028 17.0884 1.6173C17.0884 1.97432 16.947 2.3168 16.6951 2.5698L9.94506 9.3198C9.69206 9.5717 9.34958 9.71312 8.99256 9.71312C8.63554 9.71312 8.29306 9.5717 8.04006 9.3198L1.29006 2.5698C1.03506 2.3148 0.900062 1.9698 0.900063 1.6248Z" fill="#A7B1D1"/>
</svg>
